<?xml version="1.0" standalone="no"?>
<!DOCTYPE svg PUBLIC "-//W3C//DTD SVG 20010904//EN"
 "http://www.w3.org/TR/2001/REC-SVG-20010904/DTD/svg10.dtd">
<svg version="1.0" xmlns="http://www.w3.org/2000/svg"
 width="260.000000pt" height="260.000000pt" viewBox="0 0 260.000000 260.000000"
 preserveAspectRatio="xMidYMid meet">
<metadata>
Created by potrace 1.11, written by Peter Selinger 2001-2013
</metadata>
<g transform="translate(0.000000,260.000000) scale(0.100000,-0.100000)"
fill="#000000" stroke="none">
<path d="M1178 2295 c-2 -2 -19 -6 -38 -8 -91 -11 -207 -51 -310 -105 -47 -25
-87 -48 -90 -51 -3 -4 -21 -18 -40 -30 -58 -39 -182 -171 -231 -246 -75 -113
-132 -252 -156 -380 -9 -49 -11 -285 -2 -330 5 -27 11 -60 14 -72 16 -90 95
-263 164 -358 80 -112 221 -240 304 -277 15 -7 27 -16 27 -20 0 -5 9 -8 19 -8
11 0 22 -4 25 -9 5 -7 118 -54 136 -56 3 -1 14 -4 25 -8 126 -41 369 -45 510
-7 154 41 311 123 404 209 24 23 48 41 53 41 4 0 8 4 8 8 0 4 15 23 33 42 81
85 189 274 213 372 2 10 7 28 10 40 49 193 43 384 -21 588 -14 46 -67 155 -96
198 -16 24 -29 45 -29 48 0 3 -6 11 -12 19 -7 7 -29 32 -48 56 -19 24 -46 52
-59 64 -12 11 -33 29 -45 40 -116 103 -267 181 -433 221 -61 15 -324 30 -335
19z"/>
</g>
</svg>
